<?xml version="1.0" standalone="no"?>
<!DOCTYPE svg PUBLIC "-//W3C//DTD SVG 20010904//EN"
 "http://www.w3.org/TR/2001/REC-SVG-20010904/DTD/svg10.dtd">
<svg version="1.0" xmlns="http://www.w3.org/2000/svg"
 width="242.000000pt" height="242.000000pt" viewBox="0 0 242.000000 242.000000"
 preserveAspectRatio="xMidYMid meet">
<metadata>
Created by potrace 1.11, written by Peter Selinger 2001-2013
</metadata>
<g transform="translate(0.000000,242.000000) scale(0.100000,-0.100000)"
fill="#000000" stroke="none">
<path d="M214 2125 c-54 -27 -84 -60 -102 -114 -9 -25 -12 -206 -12 -656 l0
-621 25 -50 c26 -51 70 -88 122 -103 17 -5 181 -9 365 -9 l334 -1 121 -120
c71 -72 128 -121 140 -121 11 0 69 49 140 121 l121 121 331 0 c194 0 346 4
368 10 53 14 99 52 125 101 22 42 22 44 23 675 0 697 3 667 -62 734 -57 59
-28 58 -1052 58 l-937 0 -50 -25z"/>
</g>
</svg>
